<?xml version="1.0" standalone="no"?><svg xmlns="http://www.w3.org/2000/svg" viewBox="0 0 1440 320"><path fill="#c8e8cc" fill-opacity="1" d="M0,128L40,149.3C80,171,160,213,240,218.7C320,224,400,192,480,186.7C560,181,640,203,720,218.7C800,235,880,245,960,240C1040,235,1120,213,1200,218.7C1280,224,1360,256,1400,272L1440,288L1440,320L1400,320C1360,320,1280,320,1200,320C1120,320,1040,320,960,320C880,320,800,320,720,320C640,320,560,320,480,320C400,320,320,320,240,320C160,320,80,320,40,320L0,320Z"></path></svg>